<svg xmlns="http://www.w3.org/2000/svg" viewBox="0 0 120 120" fill="none">
  <circle cx="60" cy="60" r="54" stroke="#1B5E32" stroke-width="6"/>
  <path d="M36 62 L60 38 L84 62" stroke="#1B5E32" stroke-width="6" stroke-linejoin="round" stroke-linecap="round"/>
  <path d="M80 54 V44 H88" stroke="#1B5E32" stroke-width="6" stroke-linecap="round" stroke-linejoin="round"/>
  <rect x="44" y="62" width="32" height="22" rx="2" stroke="#1B5E32" stroke-width="6"/>
  <g fill="#5B8C51">
    <rect x="50" y="67" width="8" height="8" rx="1"/>
    <rect x="62" y="67" width="8" height="8" rx="1"/>
    <rect x="50" y="77" width="8" height="8" rx="1"/>
    <rect x="62" y="77" width="8" height="8" rx="1"/>
  </g>
  <ellipse cx="60" cy="90" rx="28" ry="7" stroke="#1B5E32" stroke-width="5"/>
  <path d="M52 52 C52 46 55 44 55 40" stroke="#5B8C51" stroke-width="3.5" stroke-linecap="round"/>
  <path d="M60 50 C60 44 63 42 63 38" stroke="#5B8C51" stroke-width="3.5" stroke-linecap="round"/>
  <path d="M68 52 C68 46 71 44 71 40" stroke="#5B8C51" stroke-width="3.5" stroke-linecap="round"/>
</svg>
